<svg id="Layer_2" data-name="Layer 2" xmlns="http://www.w3.org/2000/svg" viewBox="0 0 126.35 36.01"><defs><style>.cls-1,.cls-4,.cls-6,.cls-7,.cls-8{fill:none;}.cls-1{stroke:#cccbcb;stroke-width:0.9px;}.cls-1,.cls-6,.cls-7,.cls-8{stroke-miterlimit:10;}.cls-2{isolation:isolate;font-size:16px;fill:#e42320;font-family:FaricyNew-Light, Faricy New;font-weight:300;}.cls-3{fill:#cccbcb;}.cls-5{fill:#ccc;}.cls-6,.cls-7,.cls-8{stroke:#ccc;}.cls-6{stroke-width:0.5px;}.cls-7{stroke-width:0.8px;}.cls-8{stroke-width:0.7px;}</style></defs><title>streaming-live-tv-ar</title><path class="cls-1" d="M28.48,27.34H26.29V24.65a10.94,10.94,0,0,0,11-2.7,1.08,1.08,0,0,0,0-1.54l-6.18-6.18,2.51-2.51a3.32,3.32,0,0,0,1.41.33,3.33,3.33,0,1,0-3-1.88l-2.51,2.52L23.39,6.51a1.09,1.09,0,0,0-1.55,0,10.92,10.92,0,0,0,2.27,17.17h0v3.66H21.92m.74-18.47" transform="translate(0.15 -5.04)"/><path class="cls-1" d="M48.13,15.32" transform="translate(0.15 -5.04)"/><path class="cls-1" d="M14.33,10.18l-.64.64a6.37,6.37,0,0,0,0,9l.64.64" transform="translate(0.15 -5.04)"/><path class="cls-1" d="M12.6,22.2,12.42,22a9.39,9.39,0,0,1-2.77-6.69h0a9.36,9.36,0,0,1,2.77-6.68l.18-.19" transform="translate(0.15 -5.04)"/><path class="cls-1" d="M29.35,5.28" transform="translate(0.15 -5.04)"/><path class="cls-1" d="M42.68,20.17l.64-.64a6.37,6.37,0,0,0,0-9l-.64-.64" transform="translate(0.15 -5.04)"/><path class="cls-1" d="M44.41,8.16l.18.18A9.4,9.4,0,0,1,47.36,15h0a9.39,9.39,0,0,1-2.77,6.69l-.18.18" transform="translate(0.15 -5.04)"/><g id="Layer_1" data-name="Layer 1"><g id="_" data-name=" "><text class="cls-2" transform="translate(54.45 32.29)">+</text></g><g id="Group_6" data-name="Group 6"><rect id="Rectangle-5" class="cls-1" x="0.45" y="22.29" width="50.52" height="11.79" rx="3.37"/><ellipse id="Oval-3" class="cls-3" cx="25.71" cy="28.19" rx="2.44" ry="2.53"/></g></g><g id="Layer_2-2" data-name="Layer 2"><g id="Group_10" data-name="Group 10"><g id="Group_9_Copy" data-name="Group 9 Copy"><g id="Group_3" data-name="Group 3"><g id="Rectangle"><path class="cls-4" d="M72.88,26.93a1.19,1.19,0,0,1,1.17-1.2h15a1.18,1.18,0,0,1,1.18,1.18V38.12H83.42v.62H79.7v-.62H72.88Z" transform="translate(0.15 -5.04)"/><path class="cls-5" d="M74.12,26.39a.62.62,0,0,0-.62.62V37.5h6.82v.62H82.8V37.5h6.81V27a.62.62,0,0,0-.62-.62H74.12m0-.62H89.05a1.18,1.18,0,0,1,1.18,1.19h0V38.12H83.42v.62H79.7v-.62H72.88V26.93a1.22,1.22,0,0,1,1.23-1.2Z" transform="translate(0.15 -5.04)"/></g><g id="Rectangle-2"><path class="cls-4" d="M71,37.5H79.7v.62h3.1V37.5h9.29v.64a1.18,1.18,0,0,1-1.15,1.22H72.08a1,1,0,0,1-1-1.22h0Z" transform="translate(0.15 -5.04)"/><path class="cls-5" d="M71.56,38.42a.67.67,0,0,0,.52.32H79.7v-.62H71.64m11.78,0v.62h7.52c.22,0,.41-.13.52-.62h-8M71,38.12H92.09a1.22,1.22,0,0,1-1.15,1.25H72.08a1.08,1.08,0,0,1-1-1.25h0Z" transform="translate(0.15 -5.04)"/></g><g id="Group"><path id="Path" class="cls-6" d="M70.41,39.05H68.34a.72.72,0,0,1-.72-.73V31.73a.73.73,0,0,1,.72-.73h2.89a.72.72,0,0,1,.72.73V37.5" transform="translate(0.15 -5.04)"/><ellipse id="Oval" class="cls-5" cx="69.94" cy="33.15" rx="0.37" ry="0.38"/></g></g></g><g id="Group_4" data-name="Group 4"><path id="Shape" class="cls-7" d="M116.25,36.57l-25.4-.07" transform="translate(0.15 -5.04)"/><path id="Shape-2" class="cls-7" d="M88.06,25.11v-9h34.69l.09,10.22" transform="translate(0.15 -5.04)"/><rect id="Rectangle-3" class="cls-5" x="99.05" y="33.08" width="13.63" height="0.62"/><rect id="Rectangle_Copy_9" data-name="Rectangle Copy 9" class="cls-5" x="104.01" y="31.84" width="4.34" height="1.24"/></g><g id="Group_2" data-name="Group 2"><rect id="Rectangle-4" class="cls-8" x="117.33" y="21.62" width="8.67" height="11.77" rx="0.84"/><circle id="Oval-2" class="cls-5" cx="121.83" cy="31.94" r="0.56"/></g></g></g></svg>