<svg id="Layer_1" data-name="Layer 1" xmlns="http://www.w3.org/2000/svg" viewBox="0 0 94.56 37.96"><defs><style>.cls-1,.cls-3,.cls-4{fill:none;}.cls-2{fill:#ccc;}.cls-3,.cls-4{stroke:#ccc;stroke-miterlimit:10;}.cls-3{stroke-width:0.96px;}.cls-4{stroke-width:0.8px;}</style></defs><title>streaming</title><g id="Group_10" data-name="Group 10"><g id="Group_9_Copy" data-name="Group 9 Copy"><g id="Group_3" data-name="Group 3"><g id="Rectangle"><path class="cls-1" d="M8.76,17.56a1.92,1.92,0,0,1,1.92-1.92H35.21a1.92,1.92,0,0,1,1.92,1.92v18.1H25.9v.61H20v-.61H8.76Z"/><path class="cls-2" d="M10.68,16.6a1,1,0,0,0-1,1V34.7H21v.6h4v-.6H36.17V17.56a1,1,0,0,0-1-1H10.68m0-1H35.21a1.92,1.92,0,0,1,1.92,1.92v18.1H25.9v.61H20v-.61H8.76V17.56A1.92,1.92,0,0,1,10.68,15.64Z"/></g><g id="Rectangle-2"><path class="cls-1" d="M5.8,35.05H20.58v.61h4.73v-.61H40.09v.5a1.92,1.92,0,0,1-1.93,1.93H7.73A1.92,1.92,0,0,1,5.8,35.55Z"/><path class="cls-2" d="M6.88,36a1,1,0,0,0,.85.51H19.62V36H6.88m19.39,0v.51H38.16A1,1,0,0,0,39,36H26.27m-20.47-1H20.58v.61h4.73v-.61H40.09v.5a1.92,1.92,0,0,1-1.93,1.93H7.73A1.92,1.92,0,0,1,5.8,35.55Z"/></g><g id="Group"><path id="Path" class="cls-3" d="M5.21,37.48H1.66A1.2,1.2,0,0,1,.48,36.27V25.34a1.2,1.2,0,0,1,1.18-1.21H6.39a1.21,1.21,0,0,1,1.19,1.21v9.1"/><ellipse id="Oval" class="cls-2" cx="4.03" cy="35.66" rx="0.59" ry="0.61"/></g></g></g><g id="Group_4" data-name="Group 4"><path id="Shape" class="cls-4" d="M79,33.1,38.08,33"/><path id="Shape-2" data-name="Shape" class="cls-4" d="M33.36,14.93V.4H89.49l.15,16.09"/><rect id="Rectangle-3" class="cls-2" x="51.05" y="35.72" width="22.3" height="0.77"/><rect id="Rectangle_Copy_9" data-name="Rectangle Copy 9" class="cls-2" x="58.73" y="33.41" width="6.92" height="2.3"/></g><g id="Group_2" data-name="Group 2"><rect id="Rectangle-4" class="cls-3" x="80.58" y="17.5" width="13.5" height="18.9" rx="1.35"/><circle id="Oval-2" class="cls-2" cx="87.78" cy="33.7" r="0.9"/></g></g></svg>